name rise44.9368peak50.754fall52.0217.mot
datacolumns 19
datarows 29
range 7.21664100000000 7.26331000000000
endheader
time	ground_force1_vx	ground_force1_vy	ground_force1_vz	ground_force1_px	ground_force1_py	ground_force1_pz	ground_force2_vx	ground_force2_vy	ground_force2_vz	ground_force2_px	ground_force2_py	ground_force2_pz	ground_torque1_x	ground_torque1_y	ground_torque1_z	ground_torque2_x	ground_torque2_y	ground_torque2_z	
7.21664100000000	-57.15861800000000	831.81565200000000	65.10990600000000	0.17710600000000	0.00000000000000	0.10760500000000	-2.94311300000000	10.94950000000000	2.88118100000000	0.00000000000000	0.00000000000000	0.00000000000000	0.00000000000000	32.51901700000000	0.00000000000000	0.00000000000000	1.21739000000000	0.00000000000000	
7.21831200000000	-57.61734700000000	829.85027100000002	64.94721400000000	0.17626800000000	0.00000000000000	0.10758100000000	-3.92991000000000	15.58689300000000	3.93724700000000	0.00000000000000	0.00000000000000	0.00000000000000	0.00000000000000	32.42328100000000	0.00000000000000	0.00000000000000	1.66507000000000	0.00000000000000	
7.21997600000000	-58.08943700000000	827.74338899999998	64.75873500000000	0.17541800000000	0.00000000000000	0.10755500000000	-4.97040300000000	20.78690900000000	5.07919100000000	0.00000000000000	0.00000000000000	0.00000000000000	0.00000000000000	32.32371200000000	0.00000000000000	0.00000000000000	2.14993900000000	0.00000000000000	
7.22164100000000	-58.57504700000000	825.49458000000004	64.54421200000000	0.17455700000000	0.00000000000000	0.10752800000000	-6.02755000000000	26.44932400000000	6.27397600000000	0.44457000000000	0.00000000000000	-0.08303400000000	0.00000000000000	32.22043200000000	0.00000000000000	0.00000000000000	4.94701200000000	0.00000000000000	
7.22331100000000	-59.07427200000000	823.10348099999999	64.30343700000000	0.17368600000000	0.00000000000000	0.10749700000000	-7.06212300000000	32.45735300000000	7.48557800000000	0.44285600000000	0.00000000000000	-0.08410400000000	0.00000000000000	32.11356200000000	0.00000000000000	0.00000000000000	5.89622900000000	0.00000000000000	
7.22497600000000	-59.58714400000000	820.56978000000004	64.03624400000000	0.17280600000000	0.00000000000000	0.10746400000000	-8.03563400000000	38.68758300000000	8.67776400000000	0.44141600000000	0.00000000000000	-0.08508900000000	0.00000000000000	32.00322500000000	0.00000000000000	0.00000000000000	6.83229100000000	0.00000000000000	
7.22664000000000	-60.11362800000000	817.89321900000004	63.74251800000000	0.17191800000000	0.00000000000000	0.10742900000000	-8.91311400000000	45.02008800000000	9.81679400000000	0.44023100000000	0.00000000000000	-0.08600100000000	0.00000000000000	31.88954200000000	0.00000000000000	0.00000000000000	7.73058700000000	0.00000000000000	
7.22830900000000	-60.65362000000000	815.07358699999997	63.42218800000000	0.17102300000000	0.00000000000000	0.10739000000000	-9.66538600000000	51.34741900000000	10.87370500000000	0.43927900000000	0.00000000000000	-0.08684900000000	0.00000000000000	31.77263100000000	0.00000000000000	0.00000000000000	8.57022600000000	0.00000000000000	
7.22997600000000	-61.20694700000000	812.11071800000002	63.07523300000000	0.17012200000000	0.00000000000000	0.10734800000000	-10.27061400000000	57.58148400000000	11.82593500000000	0.43854500000000	0.00000000000000	-0.08763900000000	0.00000000000000	31.65260400000000	0.00000000000000	0.00000000000000	9.33517700000000	0.00000000000000	
7.23164100000000	-61.77336700000000	809.00449100000003	62.70167700000000	0.16921800000000	0.00000000000000	0.10730300000000	-10.71503800000000	63.65787700000000	12.65820200000000	0.43801200000000	0.00000000000000	-0.08838000000000	0.00000000000000	31.52957100000000	0.00000000000000	0.00000000000000	10.01486800000000	0.00000000000000	
7.23331200000000	-62.35256200000000	805.75482599999998	62.30159400000000	0.16831100000000	0.00000000000000	0.10725500000000	-10.99294400000000	69.53757800000000	13.36265400000000	0.43766600000000	0.00000000000000	-0.08907500000000	0.00000000000000	31.40363500000000	0.00000000000000	0.00000000000000	10.60423900000000	0.00000000000000	
7.23497700000000	-62.94414400000000	802.36167999999998	61.87510400000000	0.16740300000000	0.00000000000000	0.10720200000000	-11.10598100000000	75.20629200000000	13.93838200000000	0.43749400000000	0.00000000000000	-0.08972900000000	0.00000000000000	31.27488900000000	0.00000000000000	0.00000000000000	11.10334400000000	0.00000000000000	
7.23664300000000	-63.54764700000000	798.82505100000003	61.42237700000000	0.16649500000000	0.00000000000000	0.10714600000000	-11.06198700000000	80.67186900000000	14.39044700000000	0.43748400000000	0.00000000000000	-0.09034700000000	0.00000000000000	31.14342100000000	0.00000000000000	0.00000000000000	11.51659600000000	0.00000000000000	
7.23831200000000	-64.16253200000000	795.14497300000005	60.94362600000000	0.16558900000000	0.00000000000000	0.10708500000000	-10.87350700000000	85.96034100000000	14.72858200000000	0.43762500000000	0.00000000000000	-0.09093200000000	0.00000000000000	31.00930600000000	0.00000000000000	0.00000000000000	11.85179300000000	0.00000000000000	
7.23997600000000	-64.78818500000000	791.32151399999998	60.43911500000000	0.16468600000000	0.00000000000000	0.10702000000000	-10.55619000000000	91.11116000000000	14.96573100000000	0.43790600000000	0.00000000000000	-0.09148700000000	0.00000000000000	30.87261100000000	0.00000000000000	0.00000000000000	12.11903000000000	0.00000000000000	
7.24164000000000	-65.42391400000000	787.35478200000000	59.90915200000000	0.16378700000000	0.00000000000000	0.10695100000000	-10.12719800000000	96.17215700000000	15.11658700000000	0.43831700000000	0.00000000000000	-0.09201500000000	0.00000000000000	30.73338900000000	0.00000000000000	0.00000000000000	12.32960800000000	0.00000000000000	
7.24331100000000	-66.06895200000000	783.24491999999998	59.35409000000000	0.16289500000000	0.00000000000000	0.10687700000000	-9.60377100000000	101.19469599999999	15.19622800000000	0.43884800000000	0.00000000000000	-0.09251700000000	0.00000000000000	30.59168200000000	0.00000000000000	0.00000000000000	12.49503100000000	0.00000000000000	
7.24497700000000	-66.72245500000000	778.99210500000004	58.77432800000000	0.16201000000000	0.00000000000000	0.10679900000000	-9.00203400000000	106.22935600000000	15.21895800000000	0.43949000000000	0.00000000000000	-0.09299700000000	0.00000000000000	30.44751900000000	0.00000000000000	0.00000000000000	12.62615200000000	0.00000000000000	
7.24664300000000	-67.38350199999999	774.59655599999996	58.17030800000000	0.16113400000000	0.00000000000000	0.10671500000000	-8.33608800000000	111.32241100000000	15.19741200000000	0.44023600000000	0.00000000000000	-0.09345500000000	0.00000000000000	30.30091200000000	0.00000000000000	0.00000000000000	12.73250400000000	0.00000000000000	
7.24831000000000	-68.05109800000000	770.05853000000002	57.54251600000000	0.16026800000000	0.00000000000000	0.10662700000000	-7.61741600000000	116.51322100000000	15.14192500000000	0.44107600000000	0.00000000000000	-0.09389400000000	0.00000000000000	30.15186200000000	0.00000000000000	0.00000000000000	12.82184700000000	0.00000000000000	
7.24997200000000	-68.72417000000000	765.37832300000002	56.89147800000000	0.15941500000000	0.00000000000000	0.10653300000000	-6.85459300000000	121.83258900000000	15.06020300000000	0.44200400000000	0.00000000000000	-0.09431600000000	0.00000000000000	30.00035100000000	0.00000000000000	0.00000000000000	12.89991200000000	0.00000000000000	
7.25164000000000	-69.40157100000000	760.55627600000003	56.21776300000000	0.15857400000000	0.00000000000000	0.10643400000000	-6.05326200000000	127.30202199999999	14.95722800000000	0.44301000000000	0.00000000000000	-0.09472000000000	0.00000000000000	29.84634900000000	0.00000000000000	0.00000000000000	12.97033900000000	0.00000000000000	
7.25331100000000	-70.08208200000000	755.59277199999997	55.52197700000000	0.15774800000000	0.00000000000000	0.10632900000000	-5.21633700000000	132.93379500000000	14.83539800000000	0.44408800000000	0.00000000000000	-0.09511000000000	0.00000000000000	29.68980800000000	0.00000000000000	0.00000000000000	13.03477600000000	0.00000000000000	
7.25497800000000	-70.76441000000000	750.48824500000001	54.80476600000000	0.15693700000000	0.00000000000000	0.10621900000000	-4.34436800000000	138.73166800000001	14.69482300000000	0.44523100000000	0.00000000000000	-0.09548600000000	0.00000000000000	29.53066400000000	0.00000000000000	0.00000000000000	13.09309500000000	0.00000000000000	
7.25664000000000	-71.44719100000000	745.24317599999995	54.06681200000000	0.15614300000000	0.00000000000000	0.10610400000000	-3.43602900000000	144.69207499999999	14.53373700000000	0.44643200000000	0.00000000000000	-0.09584900000000	0.00000000000000	29.36883800000000	0.00000000000000	0.00000000000000	13.14370500000000	0.00000000000000	
7.25830700000000	-72.12899200000000	739.85809800000004	53.30883100000000	0.15536600000000	0.00000000000000	0.10598200000000	-2.48864000000000	150.80561499999999	14.34897700000000	0.44768500000000	0.00000000000000	-0.09619900000000	0.00000000000000	29.20423500000000	0.00000000000000	0.00000000000000	13.18390800000000	0.00000000000000	
7.25997700000000	-72.80831200000000	734.33360200000004	52.53157500000000	0.15460900000000	0.00000000000000	0.10585500000000	-1.49871200000000	157.05867599999999	14.13647300000000	0.44898100000000	0.00000000000000	-0.09653900000000	0.00000000000000	29.03674400000000	0.00000000000000	0.00000000000000	13.21026900000000	0.00000000000000	
7.26164400000000	-73.48358700000000	728.67033500000002	51.73582700000000	0.15387100000000	0.00000000000000	0.10572200000000	-0.46244400000000	163.43504700000000	13.89171800000000	0.45031700000000	0.00000000000000	-0.09686800000000	0.00000000000000	28.86623800000000	0.00000000000000	0.00000000000000	13.21897000000000	0.00000000000000	
7.26331000000000	-74.15319000000000	722.86900700000001	50.92239900000000	0.15315400000000	0.00000000000000	0.10558400000000	0.62384300000000	169.91740500000000	13.61018300000000	0.45168400000000	0.00000000000000	-0.09718700000000	0.00000000000000	28.69257800000000	0.00000000000000	0.00000000000000	13.20613300000000	0.00000000000000	
